PathFileType	4	(X/Y/Z)	TVC_20_BWA5_walk_RCNL2025.trc
DataRate	CameraRate	NumFrames	NumMarkers	Units	OrigDataRate	OrigDataStartFrame	OrigNumFrames
100	100	9	27	mm	100	28	220
Frame#	Time	R_Shoulder			L_Shoulder			C7			J_Notch			R_Elbow			L_Elbow			R_Wrist			L_Wrist			R_Asis			L_Asis			R_Psis			L_Psis			Sacral			Thoracic			Sternum			R_Thigh_Lateral			R_Knee_Lateral			R_Shank_Lateral			R_Ankle_Lateral			R_Heel			R_Toe			L_Thigh_Lateral			L_Knee_Lateral			L_Shank_Lateral			L_Ankle_Lateral			L_Heel			L_Toe		
		X1	Y1	Z1	X2	Y2	Z2	X3	Y3	Z3	X4	Y4	Z4	X5	Y5	Z5	X6	Y6	Z6	X7	Y7	Z7	X8	Y8	Z8	X9	Y9	Z9	X10	Y10	Z10	X11	Y11	Z11	X12	Y12	Z12	X13	Y13	Z13	X14	Y14	Z14	X15	Y15	Z15	X16	Y16	Z16	X17	Y17	Z17	X18	Y18	Z18	X19	Y19	Z19	X20	Y20	Z20	X21	Y21	Z21	X22	Y22	Z22	X23	Y23	Z23	X24	Y24	Z24	X25	Y25	Z25	X26	Y26	Z26	X27	Y27	Z27
28	0.27000000	-1726.894653	1381.997070	376.855438	-1787.729248	1428.342773	17.086784	-1784.433960	1458.486450	216.646210	-1663.955688	1328.500610	188.654114	-1768.447144	1068.014404	466.416748	-1864.741333	1127.521851	-95.110725	-1603.793274	868.466064	429.268494	-1745.864563	896.282410	-110.844555	-1724.177124	1005.440247	315.792786	-1739.871582	1009.963257	39.124378	-1885.092285	1008.097168	229.654953	-1901.663940	997.602539	139.106461	-1893.378113	1002.849854	184.380707	-1905.640381	1239.558594	196.688843	-1664.501099	1184.977173	167.079849	-1742.465820	665.826172	373.325012	-1724.336426	472.286530	288.700531	-1778.020386	294.197327	340.338409	-1807.356812	66.840530	249.583420	-1856.514404	46.489170	200.845642	-1661.888062	29.211226	231.415771	-1709.041382	649.490601	-41.923264	-1638.955322	494.024597	18.592560	-1759.874878	362.145111	-34.691387	-1937.158813	190.236313	38.191723	-1980.523926	214.141861	78.097473	-1860.649414	75.461754	68.338066
29	0.28000000	-1714.091675	1383.309570	377.438110	-1774.790039	1428.768188	17.578426	-1771.398682	1459.360107	217.027618	-1650.633667	1329.957520	189.462967	-1754.013306	1069.467041	467.678406	-1853.925781	1128.519043	-94.108994	-1587.159058	872.239807	428.167709	-1739.851624	894.946503	-111.259781	-1713.700562	1005.396362	317.342712	-1726.846802	1011.186951	40.687935	-1873.043823	1008.936401	230.235809	-1889.103638	998.588684	139.460510	-1881.073730	1003.762543	184.848160	-1893.010742	1240.464111	197.544785	-1651.893677	1185.713013	168.326416	-1737.226074	665.555664	373.936554	-1723.221436	472.080475	288.672394	-1778.777710	294.663910	340.122955	-1807.470703	67.058952	249.293716	-1856.432861	46.819702	200.488739	-1662.002441	29.288910	231.733704	-1688.717896	652.662048	-40.635571	-1616.705688	498.641479	20.932566	-1732.219238	361.236023	-32.643837	-1901.457275	180.977417	40.022236	-1946.213867	202.491943	79.917145	-1818.578003	71.311249	69.930893
30	0.29000000	-1701.335083	1384.305176	377.996765	-1761.788818	1428.856201	18.032131	-1758.380005	1459.906128	217.375549	-1637.326172	1330.909180	190.175140	-1739.626465	1070.624390	468.931335	-1843.121338	1129.229126	-93.161980	-1570.618958	875.773285	427.032288	-1733.708252	893.499878	-111.644554	-1703.283691	1004.953369	318.907227	-1713.856689	1012.035278	42.197628	-1861.007080	1009.431580	230.748795	-1876.559692	999.189148	139.785233	-1868.783386	1004.310364	185.267014	-1880.404541	1241.063721	198.298157	-1639.288330	1186.083374	169.605682	-1731.809082	665.217163	374.506989	-1722.066406	471.810181	288.626160	-1779.438721	295.115845	339.842621	-1807.584106	67.279610	248.937653	-1856.328003	47.135784	200.050797	-1662.085693	29.322136	231.965317	-1668.386841	655.699829	-39.374641	-1595.140503	502.856842	23.363447	-1704.596558	359.700500	-30.492056	-1865.000122	171.208298	41.954346	-1910.995483	190.179031	81.878120	-1775.862671	67.090096	71.580597
31	0.30000000	-1688.612671	1384.960205	378.530426	-1748.730347	1428.600952	18.451859	-1745.370972	1460.110352	217.696518	-1623.991821	1331.373047	190.749146	-1725.265869	1071.458130	470.168152	-1832.333618	1129.645386	-92.265930	-1554.166748	879.023987	425.868103	-1727.409424	891.935669	-111.987934	-1692.830444	1004.154419	320.452301	-1700.893311	1012.483826	43.632378	-1848.972168	1009.571960	231.189484	-1864.024536	999.387634	140.080978	-1856.498352	1004.479797	185.635231	-1867.813354	1241.345581	198.942413	-1626.686768	1186.068970	170.898712	-1726.136108	664.788391	375.010559	-1720.822876	471.467010	288.576752	-1779.935181	295.543884	339.532623	-1807.696777	67.500008	248.540985	-1856.216064	47.431156	199.556503	-1662.136719	29.300371	232.103409	-1648.067017	658.529419	-38.112225	-1574.278687	506.598633	25.862215	-1677.031494	357.627289	-28.258759	-1827.762817	161.111816	43.981224	-1874.838623	177.417969	83.955338	-1732.575439	62.891197	73.293839
32	0.31000000	-1675.912964	1385.258301	379.036865	-1735.621582	1428.003174	18.840334	-1732.364868	1459.964478	217.995178	-1610.617798	1331.393799	191.155869	-1710.912231	1071.947144	471.380371	-1821.567627	1129.766357	-91.416306	-1537.795715	881.955078	424.681564	-1720.932556	890.249481	-112.279202	-1682.261353	1003.047058	321.945557	-1687.942871	1012.517456	44.974537	-1836.929199	1009.353149	231.551926	-1851.488159	999.176880	140.343948	-1844.208679	1004.265015	185.947937	-1855.228882	1241.302979	199.470901	-1614.090210	1185.659424	172.186646	-1720.149902	664.234497	375.423126	-1719.435791	471.047852	288.537842	-1780.235840	295.942963	339.228424	-1807.806763	67.719109	248.127899	-1856.112183	47.706516	199.033676	-1662.161621	29.228514	232.160110	-1627.811401	661.075989	-36.824081	-1554.141235	509.805145	28.401171	-1649.556641	355.107971	-25.971310	-1789.727661	150.872513	46.094585	-1837.729004	164.429245	86.113747	-1688.798340	58.815815	75.109489
33	0.32000000	-1663.225464	1385.190430	379.512512	-1722.470459	1427.069336	19.198879	-1719.356079	1459.466553	218.274155	-1597.254150	1331.009033	191.452576	-1696.548462	1072.078247	472.558502	-1810.827271	1129.595459	-90.608063	-1521.499390	884.535828	423.479721	-1714.257507	888.440216	-112.508362	-1671.519775	1001.677979	323.359985	-1674.986572	1012.129761	46.211319	-1824.868042	1008.777161	231.828949	-1838.937866	998.558228	140.566803	-1831.902954	1003.667694	186.197876	-1842.642456	1240.933838	199.877075	-1601.498169	1184.853882	173.451889	-1713.812134	663.523743	375.733032	-1717.843262	470.554718	288.520660	-1780.330444	296.311920	338.960846	-1807.909180	67.937920	247.717209	-1856.026245	47.969170	198.508240	-1662.172852	29.124166	232.162888	-1607.720093	663.265991	-35.498123	-1534.748535	512.424683	30.950726	-1622.211426	352.233856	-23.660734	-1750.893799	140.680756	48.285206	-1799.676147	151.437347	88.314140	-1644.622559	54.982513	77.093407
34	0.33000000	-1650.540405	1384.755493	379.952972	-1709.285400	1425.812256	19.527245	-1706.338989	1458.621216	218.533920	-1583.977539	1330.278564	191.832047	-1682.159424	1071.846069	473.692017	-1800.115845	1129.141357	-89.836098	-1505.271667	886.742065	422.270233	-1707.366638	886.510193	-112.666451	-1660.572998	1000.090088	324.675964	-1662.001465	1011.322815	47.335747	-1812.777954	1007.852295	232.012634	-1826.358521	997.541260	140.739395	-1819.568237	1002.696777	186.376015	-1830.044800	1240.241089	200.154663	-1588.908447	1183.660645	174.678802	-1707.108643	662.640808	375.948273	-1715.975952	469.993439	288.532684	-1780.207153	296.651398	338.752594	-1807.995850	68.159836	247.319534	-1855.961304	48.231972	197.999283	-1662.186401	29.009737	232.144775	-1587.949341	665.020752	-34.136002	-1516.116089	514.415344	33.482506	-1595.040527	349.093903	-21.359034	-1711.289795	130.734375	50.544170	-1760.719971	138.667892	90.520531	-1600.145996	51.530613	79.328537
35	0.34000000	-1637.848999	1383.960449	380.352844	-1696.073853	1424.250122	19.823452	-1693.308594	1457.439331	218.772781	-1570.812622	1329.208984	192.425781	-1667.733154	1071.253540	474.769531	-1789.434570	1128.416870	-89.095833	-1489.108093	888.556244	421.061371	-1700.244324	884.465057	-112.745941	-1649.409424	998.321106	325.882202	-1648.961182	1010.106079	48.347118	-1800.647583	1006.593140	232.094849	-1813.732300	996.142761	140.849625	-1807.189941	1001.367950	186.472237	-1817.426147	1239.233154	200.298096	-1576.315552	1182.096924	175.854355	-1700.049805	661.593811	376.098969	-1713.759521	469.371918	288.576630	-1779.833740	296.960510	338.615387	-1808.054565	68.390480	246.935669	-1855.911255	48.512157	197.514511	-1662.215576	28.904016	232.131882	-1568.713257	666.249146	-32.750298	-1498.250732	515.746582	35.972248	-1568.092529	345.773773	-19.094595	-1670.984009	121.235825	52.865231	-1720.937744	126.342697	92.707314	-1555.476685	48.619427	81.899696
36	0.35000000	-1625.143188	1382.820190	380.705963	-1682.841797	1422.405884	20.083698	-1680.259888	1455.938110	218.986801	-1557.683228	1327.769409	193.119125	-1653.260742	1070.311646	475.778961	-1778.782227	1127.439087	-88.383736	-1473.005737	889.967804	419.861938	-1692.876831	882.313538	-112.740959	-1638.035400	996.403442	326.975647	-1635.837158	1008.496277	49.251087	-1788.464111	1005.019714	232.067841	-1801.039551	994.386292	140.884201	-1794.751831	999.703003	186.476021	-1804.776123	1237.923096	200.302933	-1563.711304	1180.188110	176.968277	-1692.664673	660.412170	376.231964	-1711.118164	468.698425	288.650177	-1779.147705	297.234222	338.548370	-1808.069214	68.637405	246.556244	-1855.861206	48.830364	197.047470	-1662.265991	28.817574	232.136017	-1550.274048	666.843140	-31.358038	-1481.147827	516.401062	38.402481	-1541.420166	342.356384	-16.887405	-1630.093872	112.384140	55.247719	-1680.450317	114.673058	94.865997	-1510.741333	46.421410	84.874268
